<svg version="1.1" xmlns="http://www.w3.org/2000/svg" viewBox="0 0 261.5548785289074 190.72262105558866" width="261.5548785289074" height="190.72262105558866">
  <!-- svg-source:excalidraw -->
  
  <defs>
    <style class="style-fonts">
      @font-face {
        font-family: "Virgil";
        src: url("https://excalidraw.com/Virgil.woff2");
      }
      @font-face {
        font-family: "Cascadia";
        src: url("https://excalidraw.com/Cascadia.woff2");
      }
      @font-face {
        font-family: "Assistant";
        src: url("https://excalidraw.com/Assistant-Regular.woff2");
      }
    </style>
    
  </defs>
  <rect x="0" y="0" width="261.5548785289074" height="190.72262105558866" fill="#ffffff"></rect><g stroke-linecap="round" transform="translate(35.108805909670224 83.56520763868639) rotate(0 17.99211359572267 17.632271323808197)"><path d="M35.98 17.63 C35.98 18.65, 35.89 19.69, 35.71 20.69 C35.53 21.7, 35.26 22.7, 34.9 23.66 C34.54 24.62, 34.09 25.56, 33.57 26.45 C33.05 27.33, 32.44 28.18, 31.77 28.97 C31.11 29.75, 30.36 30.48, 29.56 31.14 C28.76 31.8, 27.89 32.39, 26.99 32.9 C26.09 33.41, 25.12 33.85, 24.15 34.2 C23.17 34.55, 22.14 34.82, 21.12 35 C20.09 35.17, 19.03 35.26, 17.99 35.26 C16.95 35.26, 15.89 35.17, 14.87 35 C13.84 34.82, 12.82 34.55, 11.84 34.2 C10.86 33.85, 9.9 33.41, 9 32.9 C8.09 32.39, 7.22 31.8, 6.43 31.14 C5.63 30.48, 4.88 29.75, 4.21 28.97 C3.54 28.18, 2.93 27.33, 2.41 26.45 C1.89 25.56, 1.44 24.62, 1.09 23.66 C0.73 22.7, 0.45 21.7, 0.27 20.69 C0.09 19.69, 0 18.65, 0 17.63 C0 16.61, 0.09 15.58, 0.27 14.57 C0.45 13.57, 0.73 12.56, 1.09 11.6 C1.44 10.64, 1.89 9.7, 2.41 8.82 C2.93 7.93, 3.54 7.08, 4.21 6.3 C4.88 5.52, 5.63 4.78, 6.43 4.13 C7.22 3.47, 8.09 2.87, 9 2.36 C9.9 1.85, 10.86 1.41, 11.84 1.06 C12.82 0.71, 13.84 0.45, 14.87 0.27 C15.89 0.09, 16.95 0, 17.99 0 C19.03 0, 20.09 0.09, 21.12 0.27 C22.14 0.45, 23.17 0.71, 24.15 1.06 C25.12 1.41, 26.09 1.85, 26.99 2.36 C27.89 2.87, 28.76 3.47, 29.56 4.13 C30.36 4.78, 31.11 5.52, 31.77 6.3 C32.44 7.08, 33.05 7.93, 33.57 8.82 C34.09 9.7, 34.54 10.64, 34.9 11.6 C35.26 12.56, 35.53 13.57, 35.71 14.57 C35.89 15.58, 35.94 17.12, 35.98 17.63 C36.03 18.14, 36.03 17.12, 35.98 17.63" stroke="#1e1e1e" stroke-width="1" fill="none"></path></g><g stroke-linecap="round" transform="translate(107.59221299382341 85.08804674422618) rotate(0 17.272429051893766 15.11337542040701)"><path d="M0 0 C13.23 0, 26.45 0, 34.54 0 M0 0 C7.74 0, 15.48 0, 34.54 0 M34.54 0 C34.54 9.33, 34.54 18.65, 34.54 30.23 M34.54 0 C34.54 11.26, 34.54 22.52, 34.54 30.23 M34.54 30.23 C24 30.23, 13.46 30.23, 0 30.23 M34.54 30.23 C22.79 30.23, 11.03 30.23, 0 30.23 M0 30.23 C0 19.53, 0 8.84, 0 0 M0 30.23 C0 18.77, 0 7.32, 0 0" stroke="#1e1e1e" stroke-width="1" fill="none"></path></g><g stroke-linecap="round"><g transform="translate(206.92419718460116 109.42868444874352) rotate(0 16.647179415322228 0.2920557792161844)"><path d="M0 0 C10.9 0.19, 21.8 0.38, 33.29 0.58 M0 0 C11.27 0.2, 22.54 0.4, 33.29 0.58" stroke="#1e1e1e" stroke-width="1" fill="none"></path></g></g><mask></mask><g stroke-linecap="round"><g transform="translate(237.96060250314332 109.4459320991416) rotate(0 0.2920557792161844 -14.602788960808937)"><path d="M0 0 C0.21 -10.64, 0.43 -21.28, 0.58 -29.21 M0 0 C0.22 -11.14, 0.45 -22.28, 0.58 -29.21" stroke="#1e1e1e" stroke-width="1" fill="none"></path></g></g><mask></mask><g stroke-linecap="round"><g transform="translate(206.3778765533711 109.3531025943389) rotate(0 0.2920557792161844 -14.602788960808937)"><path d="M0 0 C0.16 -8.19, 0.33 -16.37, 0.58 -29.21 M0 0 C0.14 -7.02, 0.28 -14.04, 0.58 -29.21" stroke="#1e1e1e" stroke-width="1" fill="none"></path></g></g><mask></mask><g stroke-linecap="round"><g transform="translate(206.34008562616884 93.6576723710699) rotate(0 15.771012077673674 0.2920557792161844)"><path d="M0 0 C9.28 0.17, 18.57 0.34, 31.54 0.58 M0 0 C7.78 0.14, 15.56 0.29, 31.54 0.58" stroke="#1e1e1e" stroke-width="1" fill="none"></path></g></g><mask></mask><g stroke-linecap="round"><g transform="translate(54.54028859305075 179.28325196793094) rotate(0 85.6424607156399 -0.35984227191443097)"><path d="M0 0 C62.48 -0.26, 124.96 -0.53, 171.28 -0.72 M0 0 C52.81 -0.22, 105.62 -0.44, 171.28 -0.72" stroke="#1e1e1e" stroke-width="1" fill="none"></path></g></g><mask></mask><g stroke-linecap="round"><g transform="translate(53.46076177730734 34.986500930235024) rotate(0 86.00230298755436 5.684341886080802e-14)"><path d="M0 0 C46.99 0, 93.99 0, 172 0 M0 0 C63.78 0, 127.56 0, 172 0" stroke="#1e1e1e" stroke-width="1" fill="none"></path></g></g><mask></mask><g stroke-linecap="round"><g transform="translate(54.54028859305072 119.54943483013176) rotate(0 0 30.58659311272845)"><path d="M0 0 C0 22.17, 0 44.34, 0 61.17 M0 0 C0 13.78, 0 27.57, 0 61.17" stroke="#1e1e1e" stroke-width="1" fill="none"></path></g></g><mask></mask><g stroke-linecap="round"><g transform="translate(53.10091950539305 34.86523910555093) rotate(0 0.3598422719144452 23.389747674439377)"><path d="M0 0 C0.16 10.53, 0.32 21.07, 0.72 46.78 M0 0 C0.21 13.5, 0.42 27, 0.72 46.78" stroke="#1e1e1e" stroke-width="1" fill="none"></path></g></g><mask></mask><g stroke-linecap="round"><g transform="translate(125.429216160198 35.706185474064) rotate(0 0.35984227191443097 23.389747674439377)"><path d="M0 0 C0.28 18.14, 0.56 36.28, 0.72 46.78 M0 0 C0.23 14.94, 0.46 29.88, 0.72 46.78" stroke="#1e1e1e" stroke-width="1" fill="none"></path></g></g><mask></mask><g stroke-linecap="round"><g transform="translate(224.7456832085872 35.706185474064114) rotate(0 -2.842170943040401e-14 28.067697209327264)"><path d="M0 0 C0 19.12, 0 38.24, 0 56.14 M0 0 C0 20.01, 0 40.03, 0 56.14" stroke="#1e1e1e" stroke-width="1" fill="none"></path></g></g><mask></mask><g stroke-linecap="round"><g transform="translate(167.17091970227472 34.98650093023514) rotate(0 0.35984227191443097 23.389747674439377)"><path d="M0 0 C0.18 11.73, 0.36 23.46, 0.72 46.78 M0 0 C0.17 11.23, 0.35 22.45, 0.72 46.78" stroke="#1e1e1e" stroke-width="1" fill="none"></path></g></g><mask></mask><g stroke-linecap="round"><g transform="translate(223.66615639284385 109.11400894461258) rotate(0 0 34.90470037570185)"><path d="M0 0 C0 20.38, 0 40.76, 0 69.81 M0 0 C0 14.11, 0 28.21, 0 69.81" stroke="#1e1e1e" stroke-width="1" fill="none"></path></g></g><mask></mask><g stroke-linecap="round"><g transform="translate(115.71347481850779 124.58722663693402) rotate(0 15.833059964235929 0)"><path d="M0 0 C10.67 0, 21.34 0, 31.67 0 M0 0 C11.49 0, 22.97 0, 31.67 0" stroke="#1e1e1e" stroke-width="1" fill="none"></path></g></g><mask></mask><g stroke-linecap="round"><g transform="translate(147.09927929080857 94.95889851526454) rotate(0 0 14.393690876578091)"><path d="M0 0 C0 9.74, 0 19.48, 0 28.79 M0 0 C0 7.77, 0 15.53, 0 28.79" stroke="#1e1e1e" stroke-width="1" fill="none"></path></g></g><mask></mask><g stroke-linecap="round"><g transform="translate(127.22842751977026 124.22738436501959) rotate(0 0.3598422719144594 26.628328121669426)"><path d="M0 0 C0.18 13.21, 0.36 26.41, 0.72 53.26 M0 0 C0.16 11.76, 0.32 23.51, 0.72 53.26" stroke="#1e1e1e" stroke-width="1" fill="none"></path></g></g><mask></mask><g stroke-linecap="round"><g transform="translate(167.1709197022746 124.58722663693402) rotate(0 0.3598422719144594 26.628328121669426)"><path d="M0 0 C0.23 17.25, 0.47 34.49, 0.72 53.26 M0 0 C0.2 14.68, 0.4 29.35, 0.72 53.26" stroke="#1e1e1e" stroke-width="1" fill="none"></path></g></g><mask></mask><g stroke-linecap="round"><g transform="translate(167.58193961965503 82.04892081779258) rotate(0 -2.864128743092351 5.105620802903786)"><path d="M0 0 C-2.42 1.17, -4.84 2.34, -7.72 3.74 M0 0 C-1.69 0.82, -3.38 1.64, -7.72 3.74 M-7.72 3.74 C-5.67 5.1, -3.61 6.47, 1.99 10.21 M-7.72 3.74 C-5.08 5.49, -2.45 7.25, 1.99 10.21" stroke="#1e1e1e" stroke-width="1" fill="none"></path></g></g><mask></mask><g stroke-linecap="round"><g transform="translate(170.32154102609127 92.50921709691261) rotate(0 -4.981093466247614 2.366019396467607)"><path d="M0 0 C-2.51 1.19, -5.03 2.39, -9.96 4.73 M0 0 C-2.85 1.35, -5.7 2.71, -9.96 4.73" stroke="#1e1e1e" stroke-width="1" fill="none"></path></g></g><mask></mask><g stroke-linecap="round"><g transform="translate(160.6084087669085 97.49031056316016) rotate(0 3.8603474363418684 1.9924373864990912)"><path d="M0 0 C2.46 1.27, 4.91 2.54, 7.72 3.98 M0 0 C2.63 1.36, 5.27 2.72, 7.72 3.98" stroke="#1e1e1e" stroke-width="1" fill="none"></path></g></g><mask></mask><g stroke-linecap="round"><g transform="translate(168.04634044483157 101.27094730880674) rotate(0 -3.0190400024227415 3.270626669291289)"><path d="M0 0 C-1.91 2.06, -3.81 4.13, -6.04 6.54 M0 0 C-1.4 1.52, -2.81 3.04, -6.04 6.54" stroke="#1e1e1e" stroke-width="1" fill="none"></path></g></g><mask></mask><g stroke-linecap="round"><g transform="translate(161.7503271056433 107.55426731304647) rotate(0 3.648006669594139 2.3900733352513726)"><path d="M0 0 C2.05 1.34, 4.1 2.68, 7.3 4.78 M0 0 C2.68 1.76, 5.37 3.52, 7.3 4.78" stroke="#1e1e1e" stroke-width="1" fill="none"></path></g></g><mask></mask><g stroke-linecap="round"><g transform="translate(170.05268711230582 112.58600065041776) rotate(0 -3.396420002725563 2.893246668988411)"><path d="M0 0 C-1.89 1.61, -3.79 3.22, -6.79 5.79 M0 0 C-2.29 1.95, -4.59 3.91, -6.79 5.79" stroke="#1e1e1e" stroke-width="1" fill="none"></path></g></g><mask></mask><g stroke-linecap="round"><g transform="translate(162.51143377372324 118.37249398839458) rotate(0 2.012693334948466 2.8932466689884677)"><path d="M0 0 C1.13 1.63, 2.27 3.26, 4.03 5.79 M0 0 C0.81 1.16, 1.61 2.32, 4.03 5.79" stroke="#1e1e1e" stroke-width="1" fill="none"></path></g></g><mask></mask><g stroke-linecap="round"><g transform="translate(53.7497801775213 109.16008549999754) rotate(0 -0.15265026554342853 -7.327212746084058)"><path d="M0 0 C-0.11 -5.14, -0.21 -10.29, -0.31 -14.65 M0 0 C-0.1 -4.62, -0.19 -9.25, -0.31 -14.65" stroke="#1e1e1e" stroke-width="1" fill="none"></path></g><g transform="translate(53.7497801775213 109.16008549999754) rotate(0 -0.15265026554342853 -7.327212746084058)"><path d="M2.34 -7.82 C1.41 -10.22, 0.48 -12.62, -0.31 -14.65 M2.34 -7.82 C1.51 -9.98, 0.67 -12.13, -0.31 -14.65" stroke="#1e1e1e" stroke-width="1" fill="none"></path></g><g transform="translate(53.7497801775213 109.16008549999754) rotate(0 -0.15265026554342853 -7.327212746084058)"><path d="M-2.67 -7.72 C-1.84 -10.15, -1.01 -12.59, -0.31 -14.65 M-2.67 -7.72 C-1.92 -9.91, -1.18 -12.09, -0.31 -14.65" stroke="#1e1e1e" stroke-width="1" fill="none"></path></g></g><mask></mask><g transform="translate(114.81200771742357 10) rotate(0 14.4384765625 11.5)"><text x="0" y="0" font-family="Helvetica, Segoe UI Emoji" font-size="20px" fill="#1e1e1e" text-anchor="start" style="white-space: pre;" direction="ltr" dominant-baseline="text-before-edge">y(t)</text></g><g transform="translate(241.5548785289074 66.18461550575512) rotate(0 5 11.5)"><text x="0" y="0" font-family="Helvetica, Segoe UI Emoji" font-size="20px" fill="#1e1e1e" text-anchor="start" style="white-space: pre;" direction="ltr" dominant-baseline="text-before-edge">λ</text></g><g transform="translate(175.16583103423739 79.89233853061307) rotate(0 5 11.5)"><text x="0" y="0" font-family="Helvetica, Segoe UI Emoji" font-size="20px" fill="#1e1e1e" text-anchor="start" style="white-space: pre;" direction="ltr" dominant-baseline="text-before-edge">k</text></g><g transform="translate(130.82495334091885 63.12739221166851) rotate(0 8.330078125 11.5)"><text x="0" y="0" font-family="Helvetica, Segoe UI Emoji" font-size="20px" fill="#1e1e1e" text-anchor="start" style="white-space: pre;" direction="ltr" dominant-baseline="text-before-edge">m</text></g><g transform="translate(10 122.08414655271929) rotate(0 14.4384765625 11.5)"><text x="0" y="0" font-family="Helvetica, Segoe UI Emoji" font-size="20px" fill="#1e1e1e" text-anchor="start" style="white-space: pre;" direction="ltr" dominant-baseline="text-before-edge">c(t)</text></g></svg>