<svg version="1.1" xmlns="http://www.w3.org/2000/svg" viewBox="0 0 309.24176420818776 177.01075951258554" width="309.24176420818776" height="177.01075951258554">
  <!-- svg-source:excalidraw -->
  
  <defs>
    <style class="style-fonts">
      @font-face {
        font-family: "Virgil";
        src: url("https://excalidraw.com/Virgil.woff2");
      }
      @font-face {
        font-family: "Cascadia";
        src: url("https://excalidraw.com/Cascadia.woff2");
      }
      @font-face {
        font-family: "Assistant";
        src: url("https://excalidraw.com/Assistant-Regular.woff2");
      }
    </style>
    
  </defs>
  <rect x="0" y="0" width="309.24176420818776" height="177.01075951258554" fill="#ffffff"></rect><g stroke-linecap="round" transform="translate(15 10) rotate(0 62 20)"><path d="M10 0 C47.58 0, 85.15 0, 114 0 M10 0 C31.39 0, 52.79 0, 114 0 M114 0 C120.67 0, 124 3.33, 124 10 M114 0 C120.67 0, 124 3.33, 124 10 M124 10 C124 16.58, 124 23.16, 124 30 M124 10 C124 16.87, 124 23.75, 124 30 M124 30 C124 36.67, 120.67 40, 114 40 M124 30 C124 36.67, 120.67 40, 114 40 M114 40 C81.87 40, 49.75 40, 10 40 M114 40 C84.57 40, 55.13 40, 10 40 M10 40 C3.33 40, 0 36.67, 0 30 M10 40 C3.33 40, 0 36.67, 0 30 M0 30 C0 26, 0 22, 0 10 M0 30 C0 22.56, 0 15.11, 0 10 M0 10 C0 3.33, 3.33 0, 10 0 M0 10 C0 3.33, 3.33 0, 10 0" stroke="#1e1e1e" stroke-width="1" fill="none"></path></g><g transform="translate(68.669921875 18.5) rotate(0 8.330078125 11.5)"><text x="8.330078125" y="0" font-family="Helvetica, Segoe UI Emoji" font-size="20px" fill="#1e1e1e" text-anchor="middle" style="white-space: pre;" direction="ltr" dominant-baseline="text-before-edge">m</text></g><g stroke-linecap="round"><g transform="translate(10 157) rotate(0 70 0.5)"><path d="M0 0 C23.33 0.17, 116.67 0.83, 140 1 M0 0 C23.33 0.17, 116.67 0.83, 140 1" stroke="#1e1e1e" stroke-width="1" fill="none"></path></g></g><mask></mask><g stroke-linecap="round"><g transform="translate(102 49) rotate(0 0.34835877486190725 31.10240447099531)"><path d="M0 0 C0.12 10.37, 0.58 51.84, 0.7 62.2 M0 0 C0.12 10.37, 0.58 51.84, 0.7 62.2" stroke="#1e1e1e" stroke-width="1" fill="none"></path></g></g><mask></mask><g stroke-linecap="round"><g transform="translate(102 132) rotate(0 0 13)"><path d="M0 0 C0 4.33, 0 21.67, 0 26 M0 0 C0 4.33, 0 21.67, 0 26" stroke="#1e1e1e" stroke-width="1" fill="none"></path></g></g><mask></mask><g stroke-linecap="round"><g transform="translate(84.63152747789479 131.28709966574257) rotate(0 19.856450167128713 0.34835877486190725)"><path d="M0 0 C11.7 0.21, 23.41 0.41, 39.71 0.7 M0 0 C11.02 0.19, 22.03 0.39, 39.71 0.7" stroke="#1e1e1e" stroke-width="1" fill="none"></path></g></g><mask></mask><g stroke-linecap="round"><g transform="translate(121.65118229144343 131.3076723466806) rotate(0 0.34835877486190725 -17.417938743095362)"><path d="M0 0 C0.27 -13.74, 0.55 -27.47, 0.7 -34.84 M0 0 C0.2 -9.89, 0.4 -19.78, 0.7 -34.84" stroke="#1e1e1e" stroke-width="1" fill="none"></path></g></g><mask></mask><g stroke-linecap="round"><g transform="translate(83.97988625275673 131.1969470165712) rotate(0 0.34835877486190725 -17.417938743095362)"><path d="M0 0 C0.16 -7.95, 0.32 -15.91, 0.7 -34.84 M0 0 C0.14 -7.16, 0.29 -14.32, 0.7 -34.84" stroke="#1e1e1e" stroke-width="1" fill="none"></path></g></g><mask></mask><g stroke-linecap="round"><g transform="translate(83.93480992817098 112.47572582319964) rotate(0 18.81137384254299 0.34835877486190725)"><path d="M0 0 C9.11 0.17, 18.22 0.34, 37.62 0.7 M0 0 C14.97 0.28, 29.94 0.55, 37.62 0.7" stroke="#1e1e1e" stroke-width="1" fill="none"></path></g></g><mask></mask><g stroke-linecap="round"><g transform="translate(39.34488674584691 50.46786389778015) rotate(0 0 19.508091392266806)"><path d="M0 0 C0 8.02, 0 16.04, 0 39.02 M0 0 C0 9.34, 0 18.68, 0 39.02" stroke="#1e1e1e" stroke-width="1" fill="none"></path></g></g><mask></mask><g stroke-linecap="round"><g transform="translate(39.79455430455516 89.21500080664879) rotate(0 -2.864128743092351 5.105620802903786)"><path d="M0 0 C-1.57 0.76, -3.14 1.52, -7.72 3.74 M0 0 C-1.71 0.83, -3.42 1.65, -7.72 3.74 M-7.72 3.74 C-5.02 5.54, -2.31 7.34, 1.99 10.21 M-7.72 3.74 C-4.66 5.78, -1.6 7.82, 1.99 10.21" stroke="#1e1e1e" stroke-width="1" fill="none"></path></g></g><mask></mask><g stroke-linecap="round"><g transform="translate(42.5341557109914 99.67529708576876) rotate(0 -4.981093466247614 2.366019396467607)"><path d="M0 0 C-3.7 1.76, -7.39 3.51, -9.96 4.73 M0 0 C-2.76 1.31, -5.53 2.62, -9.96 4.73" stroke="#1e1e1e" stroke-width="1" fill="none"></path></g></g><mask></mask><g stroke-linecap="round"><g transform="translate(32.82102345180857 104.65639055201638) rotate(0 3.8603474363418684 1.9924373864990628)"><path d="M0 0 C2.99 1.55, 5.99 3.09, 7.72 3.98 M0 0 C2.85 1.47, 5.69 2.94, 7.72 3.98" stroke="#1e1e1e" stroke-width="1" fill="none"></path></g></g><mask></mask><g stroke-linecap="round"><g transform="translate(41.28888234442945 108.6412653250145) rotate(0 -1.867910049842834 23.90924863798847)"><path d="M0 0 C-1.03 1.61, -2.05 3.22, -3.49 5.48 M0 0 C-0.79 1.24, -1.58 2.48, -3.49 5.48 M-3.49 5.48 C-3.57 20.11, -3.66 34.74, -3.74 47.82 M-3.49 5.48 C-3.59 22.22, -3.68 38.96, -3.74 47.82" stroke="#1e1e1e" stroke-width="1" fill="none"></path></g></g><mask></mask><g transform="translate(14.141922953380003 88.2187821133993) rotate(0 5 11.5)"><text x="0" y="0" font-family="Helvetica, Segoe UI Emoji" font-size="20px" fill="#1e1e1e" text-anchor="start" style="white-space: pre;" direction="ltr" dominant-baseline="text-before-edge">k</text></g><g stroke-linecap="round"><g transform="translate(33.81724214505806 157.95409064086573) rotate(0 -5.603730149528559 2.615074069779979)"><path d="M0 0 C-2.7 1.26, -5.39 2.52, -11.21 5.23 M0 0 C-2.52 1.18, -5.05 2.35, -11.21 5.23" stroke="#1e1e1e" stroke-width="1" fill="none"></path></g></g><mask></mask><g stroke-linecap="round"><g transform="translate(54.36425269332932 158.0786179775219) rotate(0 -5.603730149528559 2.615074069779979)"><path d="M0 0 C-2.34 1.09, -4.67 2.18, -11.21 5.23 M0 0 C-3.17 1.48, -6.33 2.96, -11.21 5.23" stroke="#1e1e1e" stroke-width="1" fill="none"></path></g></g><mask></mask><g stroke-linecap="round"><g transform="translate(73.04335319175794 158.07861797752196) rotate(0 -5.603730149528559 2.615074069779979)"><path d="M0 0 C-3.13 1.46, -6.25 2.92, -11.21 5.23 M0 0 C-2.66 1.24, -5.32 2.48, -11.21 5.23" stroke="#1e1e1e" stroke-width="1" fill="none"></path></g></g><mask></mask><g stroke-linecap="round"><g transform="translate(94.46205509662263 158.0786179775219) rotate(0 -5.603730149528559 2.615074069779979)"><path d="M0 0 C-3.83 1.79, -7.67 3.58, -11.21 5.23 M0 0 C-2.5 1.16, -4.99 2.33, -11.21 5.23" stroke="#1e1e1e" stroke-width="1" fill="none"></path></g></g><mask></mask><g stroke-linecap="round"><g transform="translate(95.20921911655978 157.82956330420961) rotate(0 -5.603730149528559 2.615074069779979)"><path d="M0 0 C-4.35 2.03, -8.69 4.06, -11.21 5.23 M0 0 C-4.07 1.9, -8.14 3.8, -11.21 5.23" stroke="#1e1e1e" stroke-width="1" fill="none"></path></g></g><mask></mask><g stroke-linecap="round"><g transform="translate(116.87697569473698 157.82956330420956) rotate(0 -8.122626052929718 3.6946008855233288)"><path d="M0 0 C-4.93 2.24, -9.86 4.49, -16.25 7.39 M0 0 C-5.89 2.68, -11.77 5.35, -16.25 7.39" stroke="#1e1e1e" stroke-width="1" fill="none"></path></g></g><mask></mask><g transform="translate(134.36577050397614 97.56748825435028) rotate(0 5 11.5)"><text x="0" y="0" font-family="Helvetica, Segoe UI Emoji" font-size="20px" fill="#1e1e1e" text-anchor="start" style="white-space: pre;" direction="ltr" dominant-baseline="text-before-edge">λ</text></g><g stroke-linecap="round"><g transform="translate(165.2041026194443 158.12951397508914) rotate(0 6.5020579761529405 0.18577308503290624)"><path d="M0 0 C3.45 0.1, 6.91 0.2, 13 0.37 M0 0 C4.19 0.12, 8.38 0.24, 13 0.37" stroke="#1e1e1e" stroke-width="1" fill="none"></path></g></g><mask></mask><g stroke-linecap="round"><g transform="translate(170.4057490003667 157.38642163495734) rotate(0 -0.5573192550988324 -9.845973506745878)"><path d="M0 0 C-0.27 -4.76, -0.54 -9.52, -1.11 -19.69 M0 0 C-0.38 -6.69, -0.76 -13.38, -1.11 -19.69" stroke="#1e1e1e" stroke-width="1" fill="none"></path></g><g transform="translate(170.4057490003667 157.38642163495734) rotate(0 -0.5573192550988324 -9.845973506745878)"><path d="M2.78 -10.63 C1.84 -12.82, 0.9 -15.01, -1.11 -19.69 M2.78 -10.63 C1.45 -13.71, 0.13 -16.79, -1.11 -19.69" stroke="#1e1e1e" stroke-width="1" fill="none"></path></g><g transform="translate(170.4057490003667 157.38642163495734) rotate(0 -0.5573192550988324 -9.845973506745878)"><path d="M-3.96 -10.25 C-3.27 -12.53, -2.58 -14.81, -1.11 -19.69 M-3.96 -10.25 C-2.99 -13.46, -2.03 -16.67, -1.11 -19.69" stroke="#1e1e1e" stroke-width="1" fill="none"></path></g></g><mask></mask><g transform="translate(186.01068814313373 144.01075951258554) rotate(0 14.4384765625 11.5)"><text x="0" y="0" font-family="Helvetica, Segoe UI Emoji" font-size="20px" fill="#1e1e1e" text-anchor="start" style="white-space: pre;" direction="ltr" dominant-baseline="text-before-edge">c(t)</text></g><g transform="translate(200.74934404474072 24.551689697946898) rotate(0 13.8916015625 11.500000000000014)"><text x="0" y="0" font-family="Helvetica, Segoe UI Emoji" font-size="20px" fill="#1e1e1e" text-anchor="start" style="white-space: pre;" direction="ltr" dominant-baseline="text-before-edge">Fel</text></g><g transform="translate(259.2417642081877 26.289088316663168) rotate(0 20.00000000000003 11.500000000000014)"><text x="0" y="0" font-family="Helvetica, Segoe UI Emoji" font-size="20px" fill="#1e1e1e" text-anchor="start" style="white-space: pre;" direction="ltr" dominant-baseline="text-before-edge">Fam</text></g><g stroke-linecap="round"><g transform="translate(210.71836471488518 64.53614835784435) rotate(181.4320961841646 6.5020579761529405 0.18577308503290624)"><path d="M0 0 C4.77 0.14, 9.53 0.27, 13 0.37 M0 0 C3.11 0.09, 6.22 0.18, 13 0.37" stroke="#1e1e1e" stroke-width="1" fill="none"></path></g></g><mask></mask><g stroke-linecap="round"><g transform="translate(219.36560569325604 85.38579708642703) rotate(181.4320961841646 -0.5573192550988324 -9.845973506745878)"><path d="M0 0 C-0.26 -4.54, -0.51 -9.08, -1.11 -19.69 M0 0 C-0.41 -7.24, -0.82 -14.48, -1.11 -19.69" stroke="#1e1e1e" stroke-width="1" fill="none"></path></g><g transform="translate(219.36560569325604 85.38579708642703) rotate(181.4320961841646 -0.5573192550988324 -9.845973506745878)"><path d="M2.78 -10.63 C1.88 -12.72, 0.98 -14.81, -1.11 -19.69 M2.78 -10.63 C1.35 -13.96, -0.08 -17.29, -1.11 -19.69" stroke="#1e1e1e" stroke-width="1" fill="none"></path></g><g transform="translate(219.36560569325604 85.38579708642703) rotate(181.4320961841646 -0.5573192550988324 -9.845973506745878)"><path d="M-3.96 -10.25 C-3.3 -12.43, -2.65 -14.61, -1.11 -19.69 M-3.96 -10.25 C-2.91 -13.72, -1.87 -17.19, -1.11 -19.69" stroke="#1e1e1e" stroke-width="1" fill="none"></path></g></g><mask></mask><g stroke-linecap="round"><g transform="translate(272.430223910819 67.48288436336088) rotate(181.4320961841646 6.502057976152969 0.18577308503290624)"><path d="M0 0 C4.57 0.13, 9.14 0.26, 13 0.37 M0 0 C2.94 0.08, 5.88 0.17, 13 0.37" stroke="#1e1e1e" stroke-width="1" fill="none"></path></g></g><mask></mask><g stroke-linecap="round"><g transform="translate(281.07746488918986 88.33253309194356) rotate(181.4320961841646 -0.5573192550988324 -9.845973506745878)"><path d="M0 0 C-0.38 -6.64, -0.75 -13.28, -1.11 -19.69 M0 0 C-0.29 -5.13, -0.58 -10.26, -1.11 -19.69" stroke="#1e1e1e" stroke-width="1" fill="none"></path></g><g transform="translate(281.07746488918986 88.33253309194356) rotate(181.4320961841646 -0.5573192550988324 -9.845973506745878)"><path d="M2.78 -10.63 C1.46 -13.69, 0.15 -16.74, -1.11 -19.69 M2.78 -10.63 C1.76 -12.99, 0.75 -15.35, -1.11 -19.69" stroke="#1e1e1e" stroke-width="1" fill="none"></path></g><g transform="translate(281.07746488918986 88.33253309194356) rotate(181.4320961841646 -0.5573192550988324 -9.845973506745878)"><path d="M-3.96 -10.25 C-3 -13.43, -2.04 -16.62, -1.11 -19.69 M-3.96 -10.25 C-3.22 -12.71, -2.48 -15.17, -1.11 -19.69" stroke="#1e1e1e" stroke-width="1" fill="none"></path></g></g><mask></mask></svg>